<svg height="21.667" viewBox="0 0 21.746 21.667" width="21.746" xmlns="http://www.w3.org/2000/svg"><g fill="#c9c9c9" transform="translate(-345.868 -348.028)"><path d="m357.472 368.875c-.3.016-.617.041-.934.047-1.018.019-2.036.056-3.053.036-.782-.015-1.565-.078-2.342-.17-.8-.094-1.593-.226-2.38-.385a5.116 5.116 0 0 1 -2.08-.9 1.825 1.825 0 0 1 -.81-1.524 2.761 2.761 0 0 1 .136-1.23 4.053 4.053 0 0 1 .562-.9 7.883 7.883 0 0 1 2.549-1.875c.849-.409 1.7-.809 2.57-1.175a1.412 1.412 0 0 0 .714-1.327 2.092 2.092 0 0 0 -.555-1.052 6.683 6.683 0 0 1 -.644-.98 7.38 7.38 0 0 1 -.848-2.174 16.485 16.485 0 0 1 -.238-1.7 6.325 6.325 0 0 1 0-1.16 5.136 5.136 0 0 1 1.049-2.8 3.986 3.986 0 0 1 1.234-1.04 3.88 3.88 0 0 1 1.526-.488 9.1 9.1 0 0 1 1.04-.041 4.258 4.258 0 0 1 2.728 1.044 4.345 4.345 0 0 1 1.452 2.624c.065.365.1.737.128 1.107a8.1 8.1 0 0 1 -.567 3.494 7.712 7.712 0 0 1 -1.424 2.409 1.619 1.619 0 0 0 -.27.664 1.525 1.525 0 0 0 .044.89.209.209 0 0 1 -.043.156 7.293 7.293 0 0 0 -.988 1.911 6.2 6.2 0 0 0 -.3 2.544 5.957 5.957 0 0 0 .875 2.728c.277.422.575.837.869 1.267z"/><path d="m609.658 615.018a5.346 5.346 0 1 1 5.336-5.324 5.311 5.311 0 0 1 -5.336 5.324zm-.735-2.457h1.466v-2.172h2.161v-1.458h-2.172v-2.161h-1.458v2.172h-2.161v1.458h2.164z" transform="translate(-247.38 -245.324)"/></g></svg>