<svg height="21" viewBox="0 0 18.375 21" width="18.375" xmlns="http://www.w3.org/2000/svg"><path d="m10.969 20.039c-.211.78-1.008.961-1.781.961s-1.57-.182-1.781-.961a29.887 29.887 0 0 1 -.844-5.447c0-1.442 1.277-1.794 2.625-1.794s2.625.352 2.625 1.794a29.916 29.916 0 0 1 -.844 5.447zm-4.535-8.2a3.938 3.938 0 1 1 5.507 0 .247.247 0 0 0 .026.377 2.729 2.729 0 0 1 .871 1.04.245.245 0 0 0 .388.078 5.906 5.906 0 1 0 -8.076 0 .245.245 0 0 0 .388-.077 2.729 2.729 0 0 1 .871-1.04.247.247 0 0 0 .026-.377zm2.754-11.839a9.19 9.19 0 0 0 -4.03 17.448.246.246 0 0 0 .35-.259c-.1-.636-.178-1.269-.222-1.819a.247.247 0 0 0 -.11-.185 7.219 7.219 0 1 1 7.923.066c-.041.576-.126 1.255-.231 1.937a.246.246 0 0 0 .35.259 9.19 9.19 0 0 0 -4.03-17.447zm0 6.563a2.625 2.625 0 1 0 2.625 2.625 2.625 2.625 0 0 0 -2.625-2.625z" fill="#c9c9c9"/></svg>