<svg height="36" viewBox="0 0 36 36" width="36" xmlns="http://www.w3.org/2000/svg"><g fill="#C9C9C9" stroke="#000" stroke-linecap="round" stroke-linejoin="round" stroke-width="3"><path d="m22.5 18a4.5 4.5 0 1 1 -4.5-4.5 4.5 4.5 0 0 1 4.5 4.5z"/><path d="m29.1 22.5a2.475 2.475 0 0 0 .495 2.73l.09.09a3 3 0 1 1 -4.245 4.245l-.09-.09a2.5 2.5 0 0 0 -4.23 1.77v.255a3 3 0 1 1 -6 0v-.135a2.475 2.475 0 0 0 -1.62-2.265 2.475 2.475 0 0 0 -2.73.495l-.09.09a3 3 0 1 1 -4.245-4.245l.09-.09a2.5 2.5 0 0 0 -1.77-4.23h-.255a3 3 0 1 1 0-6h.135a2.475 2.475 0 0 0 2.265-1.62 2.475 2.475 0 0 0 -.5-2.73l-.09-.09a3 3 0 1 1 4.25-4.245l.09.09a2.475 2.475 0 0 0 2.73.495h.12a2.475 2.475 0 0 0 1.5-2.265v-.255a3 3 0 0 1 6 0v.135a2.5 2.5 0 0 0 4.23 1.77l.09-.09a3 3 0 1 1 4.245 4.245l-.09.09a2.475 2.475 0 0 0 -.5 2.73v.12a2.475 2.475 0 0 0 2.27 1.5h.255a3 3 0 0 1 0 6h-.135a2.475 2.475 0 0 0 -2.265 1.5z"/></g></svg>