<svg height="31.511" viewBox="0 0 31.518 31.511" width="31.518" xmlns="http://www.w3.org/2000/svg"><path d="m15.757 9.914a8.079 8.079 0 1 0 8.079 8.079 8.066 8.066 0 0 0 -8.079-8.079zm0 13.331a5.252 5.252 0 1 1 5.252-5.252 5.262 5.262 0 0 1 -5.252 5.252zm10.294-13.661a1.884 1.884 0 1 1 -1.885-1.884 1.88 1.88 0 0 1 1.885 1.884zm5.349 1.916a9.325 9.325 0 0 0 -2.545-6.6 9.387 9.387 0 0 0 -6.6-2.545c-2.6-.148-10.4-.148-13 0a9.373 9.373 0 0 0 -6.6 2.538 9.356 9.356 0 0 0 -2.545 6.6c-.148 2.6-.148 10.4 0 13a9.325 9.325 0 0 0 2.545 6.6 9.4 9.4 0 0 0 6.6 2.545c2.6.148 10.4.148 13 0a9.325 9.325 0 0 0 6.6-2.545 9.387 9.387 0 0 0 2.545-6.6c.148-2.6.148-10.392 0-12.994zm-3.359 15.781a5.318 5.318 0 0 1 -3 3c-2.074.823-7 .633-9.288.633s-7.221.183-9.288-.633a5.318 5.318 0 0 1 -3-3c-.823-2.074-.633-7-.633-9.288s-.183-7.221.633-9.288a5.318 5.318 0 0 1 3-3c2.074-.823 7-.633 9.288-.633s7.221-.183 9.288.633a5.318 5.318 0 0 1 3 3c.823 2.074.633 7 .633 9.288s.189 7.221-.633 9.288z" transform="translate(.005 -2.238)"/></svg>