<svg height="1024" viewBox="0 0 1024 1024" width="1024" xmlns="http://www.w3.org/2000/svg"><path d="m868 732h-70.3c-4.8 0-9.3 2.1-12.3 5.8-7 8.5-14.5 16.7-22.4 24.5a353.84 353.84 0 0 1 -112.7 75.9 352.8 352.8 0 0 1 -137.9 27.8c-47.9 0-94.3-9.4-137.9-27.8a353.84 353.84 0 0 1 -112.7-75.9 353.28 353.28 0 0 1 -76-112.5c-18.5-43.6-27.8-89.9-27.8-137.8s9.4-94.2 27.8-137.8c17.8-42.1 43.4-80 76-112.5s70.5-58.1 112.7-75.9c43.6-18.4 90-27.8 137.9-27.8s94.3 9.3 137.9 27.8c42.2 17.8 80.1 43.4 112.7 75.9 7.9 7.9 15.3 16.1 22.4 24.5 3 3.7 7.6 5.8 12.3 5.8h70.3c6.3 0 10.2-7 6.7-12.3-76.7-119.2-210.9-198.1-363.4-197.7-239.6.6-431.7 195.1-429.3 434.4 2.4 235.5 194.2 425.6 430.4 425.6 152.1 0 285.7-78.8 362.3-197.7 3.4-5.3-.4-12.3-6.7-12.3zm88.9-226.3-141.9-112c-5.3-4.2-13-.4-13 6.3v76h-314c-4.4 0-8 3.6-8 8v56c0 4.4 3.6 8 8 8h314v76c0 6.7 7.8 10.5 13 6.3l141.9-112a8 8 0 0 0 0-12.6z"/></svg>