<svg height="25.714" viewBox="0 0 22.5 25.714" width="22.5" xmlns="http://www.w3.org/2000/svg"><path d="m13.431 24.537c-.258.955-1.234 1.177-2.181 1.177s-1.923-.222-2.181-1.177a36.6 36.6 0 0 1 -1.033-6.67c0-1.766 1.564-2.2 3.214-2.2s3.214.432 3.214 2.2a36.633 36.633 0 0 1 -1.033 6.67zm-5.553-10.045a4.821 4.821 0 1 1 6.743 0 .3.3 0 0 0 .032.461 3.341 3.341 0 0 1 1.066 1.274.3.3 0 0 0 .475.095 7.232 7.232 0 1 0 -9.889 0 .3.3 0 0 0 .475-.095 3.341 3.341 0 0 1 1.066-1.274.3.3 0 0 0 .032-.461zm3.372-14.492a11.253 11.253 0 0 0 -4.935 21.365.3.3 0 0 0 .429-.317c-.12-.779-.218-1.554-.272-2.227a.3.3 0 0 0 -.134-.227 8.839 8.839 0 1 1 9.7.081c-.05.7-.154 1.536-.282 2.372a.3.3 0 0 0 .429.317 11.253 11.253 0 0 0 -4.935-21.364zm0 8.036a3.214 3.214 0 1 0 3.214 3.214 3.214 3.214 0 0 0 -3.214-3.214z" fill="#fff"/></svg>