<svg height="17.117" viewBox="0 0 32.5 17.117" width="32.5" xmlns="http://www.w3.org/2000/svg"><g fill="#fff"><path d="m701.358 503.715c0-2.409.038-4.818-.018-7.226-.023-.98.391-1.194 1.267-1.185s1.413.082 1.4 1.2q-.073 7.367 0 14.735c.011 1.127-.558 1.167-1.413 1.184-.892.017-1.276-.229-1.256-1.195.055-2.506.02-5.01.02-7.513z" transform="translate(-678.868 -495.303)"/><path d="m650.953 504.044c0 2.408-.039 4.817.018 7.223.024 1.018-.463 1.163-1.3 1.144-.777-.018-1.363-.014-1.354-1.089q.06-7.435 0-14.871c-.008-1.018.467-1.135 1.3-1.15.917-.016 1.388.167 1.359 1.237-.068 2.5-.023 5.003-.023 7.506z" transform="translate(-640.878 -495.3)"/><path d="m635.281 513.753c0-1.175.027-2.351-.006-3.525-.029-1.05.692-.913 1.346-.927.692-.014 1.317-.043 1.3.977q-.062 3.594 0 7.191c.018 1-.571 1-1.282 1-.749 0-1.426.043-1.374-1.051.06-1.218.015-2.443.016-3.665z" transform="translate(-631.527 -505.329)"/><path d="m691.906 513.921c0 1.128-.052 2.259.016 3.383.061 1.006-.438 1.181-1.283 1.149-.745-.028-1.4.039-1.377-1.055q.077-3.523 0-7.05c-.024-1.072.588-1.067 1.356-1.081.816-.014 1.366.1 1.305 1.129-.07 1.172-.017 2.35-.017 3.525z" transform="translate(-670.215 -505.307)"/><path d="m716.913 513.919c0 1.175-.041 2.352.014 3.524.045.974-.51 1.051-1.252 1.031-.721-.02-1.426.1-1.4-1.021.047-2.4.039-4.794 0-7.191-.015-1.03.644-.96 1.321-.956s1.361-.095 1.326.947c-.042 1.221-.01 2.447-.009 3.666z" transform="translate(-688.133 -505.334)"/><path d="m662.115 513.9c0-1.177.032-2.355-.011-3.53-.033-.893.388-1.132 1.2-1.109.727.021 1.3.05 1.286 1.022-.032 2.4-.029 4.8 0 7.2.01 1.019-.656.93-1.336.958-.741.03-1.166-.177-1.144-1.013.029-1.17.005-2.347.005-3.528z" transform="translate(-650.756 -505.305)"/><path d="m729.921 519.425a8.462 8.462 0 0 0 .006.989c.113.962-.244 1.329-1.258 1.331s-1.509-.271-1.379-1.358a13.017 13.017 0 0 0 .01-1.554c0-.927-.24-1.862 1.324-1.856 1.585.006 1.28.977 1.3 1.883-.001.188-.003.376-.003.565z" transform="translate(-697.447 -510.831)"/><path d="m677.932 519.414a7.67 7.67 0 0 0 .007.989c.137 1.048-.285 1.379-1.345 1.39-1.137.012-1.378-.472-1.293-1.449a11.142 11.142 0 0 0 0-1.977c-.091-.982.291-1.316 1.28-1.329 1.05-.014 1.5.33 1.358 1.388a7.755 7.755 0 0 0 -.007.988z" transform="translate(-660.202 -510.875)"/><path d="m624.573 519.522c0 .376-.029.754 0 1.126.082.919-.316 1.225-1.23 1.219-.886-.006-1.329-.25-1.255-1.2.044-.56-.007-1.126.009-1.69.023-.848-.275-1.795 1.224-1.8 1.483-.006 1.234.91 1.249 1.778.007.191.004.379.003.567z" transform="translate(-622.084 -510.978)"/></g></svg>