<svg enable-background="new 0 0 512 512" viewBox="0 0 512 512" xmlns="http://www.w3.org/2000/svg"><path d="m292.57 124.87v206.35c0 20.18-16.36 36.57-36.57 36.57-20.18 0-36.57-16.39-36.57-36.57v-206.35l-40.96 41.03c-14.32 14.29-37.5 14.29-51.78 0-14.29-14.32-14.29-37.5.04-51.78l103.41-103.39c14.21-14.25 37.28-14.32 51.57-.14l.14.14 103.46 103.42c14.29 14.32 14.29 37.5 0 51.78-14.32 14.29-37.5 14.29-51.78-.04zm-182.85 94.57c20.21 0 36.57 16.39 36.57 36.57 0 20.21-16.36 36.57-36.57 36.57h-36.57v146.28h365.7v-146.28h-36.57c-20.18 0-36.57-16.36-36.57-36.57 0-20.18 16.39-36.57 36.57-36.57h36.57c40.43 0 73.14 32.75 73.14 73.14v146.28c0 40.39-32.71 73.14-73.14 73.14h-365.7c-40.39 0-73.14-32.75-73.14-73.14v-146.28c0-40.39 32.75-73.14 73.14-73.14z"/></svg>